<svg xmlns="http://www.w3.org/2000/svg" xmlns:xlink="http://www.w3.org/1999/xlink" fill="none" version="1.1" width="160" height="160" viewBox="0 0 160 160"><defs><linearGradient x1="0" y1="0.5000043511390686" x2="1" y2="0.5000043511390686" id="master_svg0_9_3"><stop offset="0%" stop-color="#1076FD" stop-opacity="1"/><stop offset="100%" stop-color="#FF05DD" stop-opacity="1"/></linearGradient></defs><g><g><path d="M67.5997,100.76784656372071C67.5997,97.6414465637207,66.44069999999999,95.2053465637207,64.12299999999999,93.4593465637207C61.8473,91.7136465637207,57.8227,89.90694656372071,52.0492,88.0391465637207C46.2757,86.1714465637207,41.555800000000005,84.3646465637207,37.889399999999995,82.6187465637207C25.96313,76.9749465637207,19.99999731421,69.2199465637207,20,59.353746563720705C20.00000133736,54.4409465637207,21.47498,50.1168465637207,24.42494,46.3814465637207C27.41705,42.6054365637207,31.6313,39.6821065637207,37.0676,37.611406563720706C42.5041,35.5000965637207,48.6147,34.444444849290704,55.3995,34.444446563722586C62.0159,34.44444823556071,67.93690000000001,35.5813065637207,73.1625,37.8550165637207C75.7298,38.963146563720706,78.01689999999999,40.3026965637207,80.0236,41.8737065637207C81.37010000000001,40.969296563720704,82.8195,40.157626563720704,84.3722,39.4386665637207C89.8085,36.92135656372071,96.2352,35.662686563720705,103.6523,35.662686563720705C114.8621,35.6626965637207,123.691,38.4642365637207,130.139,44.0673165637207C136.586,49.6703465637207,139.874,57.3441465637207,140,67.0886465637207C140,67.0886465637207,140,125.5555465637207,140,125.5555465637207C140,125.5555465637207,117.6857,125.5555465637207,117.6857,125.5555465637207C117.6857,125.5555465637207,117.6857,66.6623465637207,117.6857,66.6623465637207C117.4329,56.9583465637207,112.7551,52.1065465637207,103.6523,52.1065465637207C99.0588,52.1065465637207,95.582,53.3245465637207,93.222,55.7606465637207C90.8622,58.19674656372071,89.6821,62.155546563720705,89.6821,67.6367465637207C89.6821,67.6367465637207,89.6821,82.2749465637207,89.6821,82.2749465637207C86.0107,78.0101465637207,80.9802,74.4424465637207,74.8781,71.5539465637207C72.7012,70.5176465637207,70.2353,69.4837465637207,67.4942,68.4501465637207C67.4942,68.4501465637207,67.4942,67.51494656372071,67.4942,67.51494656372071C67.4942,65.5929465637207,67.61840000000001,63.74554656372071,67.8665,61.9725465637207C67.8665,61.9725465637207,67.663,61.9725465637207,67.663,61.9725465637207C67.663,58.3590465637207,66.50399999999999,55.5574465637207,64.1863,53.5680465637207C61.9106,51.57854656372071,58.813,50.5837465637207,54.8938,50.5837465637207C50.932500000000005,50.5837465637207,47.7928,51.436346563720704,45.4751,53.1416465637207C43.1993,54.8063465637207,42.0616,56.937846563720704,42.0616,59.5364465637207C42.0616,61.8102465637207,43.3257,63.8810465637207,45.8542,65.74854656372071C48.3829,67.57574656372071,52.8288,69.48404656372071,59.1924,71.4735465637207C65.5558,73.4222465637207,70.78139999999999,75.53374656372071,74.86930000000001,77.8073465637207C84.8149,83.3293465637207,89.7877,90.94204656372071,89.7877,100.6460465637207C89.7877,108.4010465637207,86.7534,114.4913465637207,80.6849,118.9169465637207C74.6163,123.3425465637207,66.2933,125.5553465637207,55.7156,125.5553465637207C55.7156,125.5553465637207,55.7156,109.4769465637207,55.7156,109.4769465637207C59.3821,109.4769465637207,62.2687,108.72584656372071,64.3758,107.2236465637207C66.52510000000001,105.6807465637207,67.5997,103.5287465637207,67.5997,100.76784656372071C67.5997,100.76784656372071,67.5997,100.76784656372071,67.5997,100.76784656372071Z" fill="url(#master_svg0_9_3)" fill-opacity="1"/></g><g><rect x="0" y="0" width="160" height="160" rx="0" fill="#F9F9F9" fill-opacity="0"/></g></g></svg>