<svg xmlns="http://www.w3.org/2000/svg" xmlns:xlink="http://www.w3.org/1999/xlink" fill="none" version="1.1" width="144" height="144" viewBox="0 0 144 144"><defs><linearGradient x1="0" y1="0.5000043511390686" x2="1" y2="0.5000043511390686" id="master_svg0_9_3"><stop offset="0%" stop-color="#1076FD" stop-opacity="1"/><stop offset="100%" stop-color="#FF05DD" stop-opacity="1"/></linearGradient></defs><g><g><path d="M60.8398,90.691C60.8398,87.87729999999999,59.7967,85.6848,57.7107,84.1134C55.6625,82.5423,52.0404,80.9162,46.844300000000004,79.23519999999999C41.6481,77.5543,37.4002,75.9282,34.1005,74.35679999999999C23.36681,69.2775,17.99999758279,62.298,18,53.4183C18.00000120363,48.9968,19.32748,45.1051,21.98244,41.7433C24.67534,38.34489,28.4682,35.71389,33.3609,33.85027C38.253699999999995,31.950085,43.7532,30.99999845702,49.8596,31.000000000001695C55.8143,31.00000150465,61.1432,32.02317,65.8463,34.06951C68.1568,35.06683,70.21520000000001,36.27243,72.0212,37.68633C73.23310000000001,36.872370000000004,74.5376,36.14186,75.9349,35.4948C80.8277,33.22922,86.6117,32.09642,93.287,32.09642C103.3759,32.09642,111.3218,34.61781,117.1248,39.660579999999996C122.928,44.7034,125.886,51.609700000000004,126,60.3798C126,60.3798,126,113,126,113C126,113,105.9171,113,105.9171,113C105.9171,113,105.9171,59.9961,105.9171,59.9961C105.6896,51.2625,101.4796,46.8959,93.287,46.8959C89.1529,46.8959,86.0238,47.9921,83.8998,50.1846C81.77590000000001,52.3771,80.7139,55.94,80.7139,60.8731C80.7139,60.8731,80.7139,74.04740000000001,80.7139,74.04740000000001C77.4096,70.2091,72.88210000000001,66.9982,67.3903,64.3985C65.4311,63.4659,63.2118,62.535399999999996,60.7447,61.6051C60.7447,61.6051,60.7447,60.7635,60.7447,60.7635C60.7447,59.033699999999996,60.8565,57.370999999999995,61.0799,55.7753C61.0799,55.7753,60.8967,55.7753,60.8967,55.7753C60.8967,52.5231,59.8536,50.0017,57.7677,48.211200000000005C55.7195,46.4206,52.9317,45.5254,49.404399999999995,45.5254C45.839200000000005,45.5254,43.0135,46.292699999999996,40.927499999999995,47.8275C38.879400000000004,49.3257,37.8554,51.2441,37.8554,53.5828C37.8554,55.6292,38.9932,57.4929,41.2688,59.1737C43.5446,60.818200000000004,47.5459,62.5356,53.2731,64.3262C59.0002,66.0801,63.7033,67.9804,67.38239999999999,70.0266C76.3334,74.9964,80.809,81.84790000000001,80.809,90.5814C80.809,97.561,78.0781,103.0422,72.6164,107.0252C67.15469999999999,111.0083,59.664,112.9998,50.1441,112.9998C50.1441,112.9998,50.1441,98.5293,50.1441,98.5293C53.4439,98.5293,56.0418,97.8533,57.9382,96.5013C59.8726,95.1126,60.8398,93.17580000000001,60.8398,90.691C60.8398,90.691,60.8398,90.691,60.8398,90.691Z" fill="url(#master_svg0_9_3)" fill-opacity="1"/></g><g><rect x="0" y="0" width="144" height="144" rx="0" fill="#F9F9F9" fill-opacity="0"/></g></g></svg>